<svg id="Capa_1" data-name="Capa 1" xmlns="http://www.w3.org/2000/svg" viewBox="0 0 864 864"><defs><style>.cls-1{fill:#c34e29;stroke:#c34e29;}.cls-1,.cls-2,.cls-4,.cls-5{stroke-miterlimit:10;}.cls-2{fill:#4275b5;stroke:#4275b5;}.cls-3{fill:none;}.cls-4{fill:#1c4762;}.cls-4,.cls-5{stroke:#1c476c;}.cls-5{fill:#1c476c;}.cls-6{fill:#ccc;}.cls-7,.cls-9{fill:#fff;}.cls-8{fill:#1e486c;}.cls-9{font-size:29px;font-family:ACES07_Regular;letter-spacing:0.05em;}</style></defs><path class="cls-1" d="M312.57,206.1l6.74-6.74q-5-4.46-10.22-8.8c-44.94-37.42-112.62-77.13-213.53-95.07C109.14,167.33,137,241.3,189,306.63q5.15,6.47,10.43,12.61l8.76-8.75.1.17-8.72,8.72L353.5,473.31C324.13,450,281.58,440,160.08,459.12a1391.07,1391.07,0,0,0-160,35.06V-.31H492.21a1392,1392,0,0,0-34.09,160.22c-18.29,120.6-6.78,163.86,15.41,193.38,8,10.69,17.51,19.6,17.23,19.87-.9.87-89.56-89.76-171.31-173.66Z"/><path class="cls-2" d="M864.36-.31V373.38c-4.86,5.15-11.55,12-19.76,19.67-41.74,39.1-91.85,71.1-119.63,80.87-64,22.52-156.13-21.51-230.55-98.54l-4.6-4.51-15-16c-.43-.52-.87-1.05-1.3-1.59C450,324.07,439.7,281.6,458.12,159.91A1392,1392,0,0,1,492.21-.31Z"/><path class="cls-2" d="M373.75,864H.06V494.18a1391.07,1391.07,0,0,1,160-35.06c121.5-19.15,164-9.12,193.42,14.19l18.62,18.62,21.39,21.39c38.85,41.55,71,91.57,80.74,119.5C496.74,697,452.05,789.31,373.75,864Z"/><path class="cls-1" d="M769.37,768.63C668.46,750.69,600.78,711,555.84,673.56q-5.24-4.35-10.22-8.8l7.2-7.2c26.76,17.91,57.38,28.12,86.26,20.06a79.08,79.08,0,0,0,25.7-12.72l.45-.41c.72-.73,1.68-1.77,2.74-3.07,17.42-21.54,9.74-55,7-67a119.69,119.69,0,0,0-7.26-22.4,140.72,140.72,0,0,0-10.41-18.93l8.23-8.23q5.28,6.15,10.43,12.61C727.92,622.82,755.79,696.79,769.37,768.63Z"/><path class="cls-3" d="M665.07,544.75l-8,8-.19.19-.19-.3C632.3,515.26,584.35,472.61,536.58,470c47.8,2.43,95.83,45,120.27,82.5l6.79-6.79L491.18,373.24,372.56,491.86,545,664.32l7.06-7.06.29.2-7.18,7.18L393.4,512.84,372,491.46,199.46,318.91l.07-.07,173,173-.62-.63L490.55,372.61,318.17,200.23l-5.39,5.39a.62.62,0,0,0,.17.11c32.41,22.66,58.78,57.21,69.35,83.61A120.9,120.9,0,0,1,388.74,312c2.18,11.38,8.34,44.07-9.43,66.68-.9,1.16-1.7,2.06-2.21,2.63-.18.16-.37.29-.55.44a79.35,79.35,0,0,1-26.69,12.06,75.9,75.9,0,0,1-15.92,2,76.87,76.87,0,0,0,15.6-2,79.38,79.38,0,0,0,26.7-12.06c.18-.15.36-.28.54-.44.52-.57,1.31-1.47,2.22-2.63,17.76-22.61,11.61-55.3,9.43-66.68A120.9,120.9,0,0,0,382,289.34c-10.58-26.4-36.95-60.95-69.36-83.61l.13-.13,5.39-5.39,1.19-1.18,0,0Z"/><path class="cls-4" d="M319.52,198.89l-.16.16-1.19,1.18-5.39,5.39,0,0-.09,0c-25.45-17.69-54.6-28-82.74-21.26a79.25,79.25,0,0,0-26.14,11.76c-.15.13-.31.26-.46.41a40.75,40.75,0,0,0-2.85,3c-18.2,20.88-11.75,54.57-9.43,66.68a119.43,119.43,0,0,0,6.43,22.64,142.06,142.06,0,0,0,10.86,21.15l.06.11v0l-.2.2c-2.85,2.83-5.72,5.69-8.56,8.55l0,0-.06-.08c-3.51-4.08-6.95-8.23-10.35-12.51-52-65.33-79.86-139.31-93.44-211.14C196.67,113,264.36,152.66,309.3,190.09,312.79,193,316.18,195.91,319.52,198.89Z"/><path class="cls-5" d="M371.93,491.23l.62.63-173-173,.09-.09,0,0c2.84-2.86,5.71-5.72,8.56-8.55,24.25,39.38,72.65,84.42,121.51,85.62q2.12.06,4.23,0a75.9,75.9,0,0,0,15.92-2,79.35,79.35,0,0,0,26.69-12.06c.18-.15.37-.28.55-.44.51-.57,1.31-1.47,2.21-2.63,17.77-22.61,11.61-55.3,9.43-66.68a120.9,120.9,0,0,0-6.44-22.65c-10.57-26.4-36.94-60.95-69.35-83.61a.62.62,0,0,1-.17-.11l6.58-6.57Q405,285.84,490.55,372.61Z"/><path class="cls-6" d="M379.31,378.67c-.9,1.16-1.7,2.06-2.21,2.63-.18.16-.37.29-.55.44a79.35,79.35,0,0,1-26.69,12.06,75.9,75.9,0,0,1-15.92,2q-2.12.06-4.23,0c-48.77-1.4-97-46.35-121.22-85.66a1.14,1.14,0,0,0-.09-.16v0l-.06-.11a142.06,142.06,0,0,1-10.86-21.15,119.43,119.43,0,0,1-6.43-22.64c-2.32-12.11-8.77-45.8,9.43-66.68a40.75,40.75,0,0,1,2.85-3c.15-.15.31-.28.46-.41a79.25,79.25,0,0,1,26.14-11.76c28.14-6.75,57.29,3.57,82.74,21.26l.09,0,0,0a.62.62,0,0,0,.17.11c32.41,22.66,58.78,57.21,69.35,83.61A120.9,120.9,0,0,1,388.74,312C390.92,323.37,397.08,356.06,379.31,378.67Z"/><path class="cls-6" d="M668,661.41a39.57,39.57,0,0,1-2.75,3.07l-.44.42a78.9,78.9,0,0,1-25.7,12.71c-28.88,8.06-59.5-2.14-86.26-20.06l-.15-.09-.47-.33a203,203,0,0,1-21.76-17c-21.76-19.48-39-42.74-47.48-61.9a119.36,119.36,0,0,1-7.26-22.39c-2.6-11.3-9.94-43.74,7-67,.88-1.18,1.63-2.12,2.13-2.7.18-.17.35-.31.53-.47a79.33,79.33,0,0,1,26.23-13A77.18,77.18,0,0,1,528.39,470h.13c.82,0,1.65-.06,2.48-.07,1.09,0,2.2,0,3.31,0,.76,0,1.52.05,2.27.09,15.18.78,30.39,5.6,44.86,13a176,176,0,0,1,26.62,17.05c5,3.83,9.78,7.89,14.37,12.12,3.21,2.95,6.31,6,9.29,9.07,6.21,6.42,10.66,11.78,12.64,14.21,3.15,3.88,7.5,9.5,12.2,16.55l.72,1.08c1.68,2.58,3.69,5.83,5.79,9.69.52,1,2.7,4.94,4.61,9.24a120.16,120.16,0,0,1,7.27,22.4C677.72,606.44,685.4,639.87,668,661.41Z"/><path class="cls-5" d="M864.36,373.38V864H373.75c78.3-74.68,123-167,100.5-231.17-9.78-27.93-41.89-78-80.74-119.5L545.3,665.11l.12.12q5,4.46,10.22,8.8c44.94,37.43,112.62,77.13,213.53,95.07C755.59,697.26,727.72,623.29,675.73,558q-5.15-6.47-10.43-12.61l-.12-.12L491.84,374.55l-.81-.81-2.27-2.23q2,2.1,4,4.16C569,453.33,661.69,496.57,725,473.92c26.15-9.35,76.38-40.36,119.63-80.87C852.81,385.36,859.5,378.53,864.36,373.38Z"/><path class="cls-7" d="M864.83,704.57Q752,587.95,639.21,471.3c4.88,1.56,10.19,3,15.92,4.25a167.53,167.53,0,0,0,35,3.75L865,654.28Q864.91,679.42,864.83,704.57Z"/><path class="cls-1" d="M664.34,545.49l-6.85,6.19c-1.23-1.67-2.34-3.09-3.27-4.22-.73-.91-1.55-1.92-2.69-3.2-1.34-1.52-1.31-1.37-2.13-2.36s-1.06-1.42-2.67-3.46c-.43-.56-.87-1.11-1.32-1.67-.95-1.17-1.91-2.35-2.9-3.53s-2.16-2.55-3.27-3.82q-1.47-1.68-3-3.33c-.9-1-1.8-2-2.72-2.93s-1.94-2-2.93-3c-1.31-1.33-2.64-2.66-4-4q-1.51-1.47-3.06-2.91-1.81-1.69-3.67-3.35c-1.07-1-2.15-1.9-3.24-2.84s-2.15-1.82-3.24-2.72c-1.75-1.45-3.54-2.87-5.35-4.26-1.59-1.23-3.21-2.43-4.84-3.61s-3-2.11-4.48-3.13-3-2-4.46-2.93c-1.89-1.2-3.79-2.35-5.7-3.47s-3.85-2.18-5.79-3.2q-4.21-2.22-8.51-4.14c-2.37-1-4.76-2-7.15-2.93q-5-1.87-10-3.26A103.41,103.41,0,0,0,547,471.15,90.43,90.43,0,0,0,536.58,470c-.76-.05-1.52-.08-2.27-.09-1.11,0-2.22,0-3.31,0-.83,0-1.66,0-2.48.07h-.13a76.2,76.2,0,0,0-17.14,2.69,79.36,79.36,0,0,0-26.24,13c-.18.16-.35.3-.53.47-.49.58-1.25,1.52-2.12,2.7A53.78,53.78,0,0,0,474,506.55a69.2,69.2,0,0,0-1.77,9,84.94,84.94,0,0,0-.69,12,112.77,112.77,0,0,0,1.32,15.59c.81,5.34,1.82,9.77,2.51,12.73.16.73.36,1.59.6,2.56a119.15,119.15,0,0,0,4.93,15.71c.53,1.35,1.1,2.72,1.73,4.12q1.05,2.37,2.27,4.81c1.12,2.24,2.35,4.51,3.67,6.82q1.35,2.34,2.82,4.71c.48.77,1,1.53,1.46,2.3q1.33,2.08,2.78,4.19,2.12,3.09,4.43,6.21,1.92,2.6,4,5.19,1.94,2.43,4,4.85t4.29,5q2.41,2.7,4.95,5.37t5.32,5.4c1.63,1.61,2.88,2.78,3.78,3.63,9.87,9.3,12.82,12.06,16.33,14.89,1.5,1.21,3.07,2.41,4.85,3.66s3,2,4,2.64L545,664.32,372.56,491.86,491.18,373.24Z"/><path class="cls-7" d="M308.08,97.3l.1-11.79,2.11-3.1c2.5-3.68,8.9-12.36,11.38-15.44,1.77-2.2,1.78-2.2,3.08-1.85,1.82.48,14.2,4.38,18.22,5.74,3.18,1.08,3.29,1.15,2.68,1.76-.35.34-5.54,4.23-11.54,8.63-12.19,9-11.15,7.91-19.8,19.71-3.1,4.24-5.8,7.8-6,7.92s-.3-4.09-.24-11.58Z"/><path class="cls-7" d="M334.47,136.1l-10.91-3.64-3.45-4.6c-6.24-8.29-11.39-15.66-11.39-16.28,0-.82,13.32-19.35,13.91-19.35.13,0,2.3,6.25,4.82,13.89L332,120l6.94,9.71c3.82,5.34,6.94,9.79,6.94,9.88,0,.31-.37.2-11.44-3.51Z"/><path class="cls-7" d="M347.64,139.16c-.51-.54-2.27-2.83-3.93-5.09-6.88-9.4-9.27-12.9-9.06-13.24s5.47-.35,14.83-.35h14.61l11-3.58c6.06-2,11.15-3.53,11.31-3.48s-8.07,11.85-12.06,17l-1.66,2.16-10.09,3.25-11.67,3.76c-2.11.69-2.25.67-3.3-.47Z"/><path class="cls-7" d="M365.36,117.52c.13-.64,2.16-7,4.52-14.26l4.28-13.11V78.32c0-6.51.12-11.83.27-11.83s8.07,10.73,12.22,16.72l1.59,2.28V98c0,10.51-.07,12.56-.51,13s-9.34,3.45-21,7.2l-1.57.51Z"/><path class="cls-7" d="M362.72,81.56c-15.63-11.24-13.17-9.9-25.78-14.06-6.09-2-10.95-3.77-10.79-3.91s4.78-1.75,10.29-3.56c7.19-2.37,10.51-3.3,11.8-3.3s4.49.89,11.8,3.3c5.5,1.83,10.61,3.62,11.35,4l1.34.68v12c0,6.58,0,12-.09,12s-4.51-3.19-9.92-7.08Z"/><path class="cls-7" d="M335,96.22c0-.26.11-.91.16-1.44.1-1.13,0-1.4-1.08-2.44a2.92,2.92,0,0,1-.64-.78c0-.14.46-.27,1.81-.49.88-.14,1.06-.3,1.69-1.49a5.53,5.53,0,0,1,.75-1.19c.08,0,.41.47.74,1.1a5.3,5.3,0,0,0,.86,1.32,5,5,0,0,0,1.32.33c1.62.23,1.64.29.57,1.42l-.91,1v.86a12.18,12.18,0,0,0,.11,1.56,6.09,6.09,0,0,1,.07.73,10.73,10.73,0,0,1-1.41-.64l-1.37-.69-1.27.68c-.69.37-1.31.67-1.37.68s-.08-.22,0-.48Z"/><path class="cls-7" d="M335,108.11c0-.26.11-.92.16-1.46.08-.92.07-1-.24-1.45a9.78,9.78,0,0,0-.91-1,2.43,2.43,0,0,1-.57-.72c0-.17.45-.32,1.64-.56,1-.2,1.39-.52,2-1.69a3.51,3.51,0,0,1,.6-.92,3.08,3.08,0,0,1,.69,1c.63,1.16.95,1.42,2,1.63s1.65.38,1.65.51a6.07,6.07,0,0,1-.89,1.06l-.88.94v.86a12.15,12.15,0,0,0,.11,1.55,4,4,0,0,1,.06.74,10,10,0,0,1-1.31-.66,10.21,10.21,0,0,0-1.43-.71,10,10,0,0,0-1.41.7c-.69.38-1.28.69-1.31.69s0-.21,0-.47Z"/><path class="cls-7" d="M345.52,113.64a3.36,3.36,0,0,1,.06-1c.07-.48.16-1.09.2-1.38.08-.51.07-.51-.95-1.43a5.06,5.06,0,0,1-1-1.1c0-.18.57-.36,1.58-.5,1.25-.17,1.4-.31,2.23-2a6.12,6.12,0,0,1,.55-1,4.19,4.19,0,0,1,.45.79c.88,1.74,1.26,2.07,2.47,2.19s1.31.17,1.31.36a5.47,5.47,0,0,1-.89,1.17l-.9,1,.07.63c.24,1.9.24,2.22.07,2.22a7.42,7.42,0,0,1-1.25-.51,9.19,9.19,0,0,0-1.22-.5,9,9,0,0,0-1.2.48c-1.37.63-1.48.67-1.56.53Z"/><path class="cls-7" d="M345.51,102.17c0-.27.13-1,.2-1.55l.12-1.07-1.09-1.1-1.09-1.09,1.19-.22c1.8-.33,1.88-.38,2.65-1.7a3.92,3.92,0,0,1,.8-1.11,6,6,0,0,1,.74,1.19c.69,1.29.76,1.34,2.17,1.56,1.07.16,1.33.23,1.33.37a8.33,8.33,0,0,1-.88,1.13c-1,1.15-1,1.27-.76,3.1a4.06,4.06,0,0,1,.08.92,8.64,8.64,0,0,1-1.43-.64l-1.38-.69-1.26.68a12.54,12.54,0,0,1-1.36.69c-.05,0-.06-.21,0-.47Z"/><path class="cls-7" d="M355.91,108.38a1,1,0,0,1,.06-.52,4.92,4.92,0,0,0,.2-2.17,4.6,4.6,0,0,0-1.08-1.44,8.05,8.05,0,0,1-.91-1s.67-.15,1.43-.27c1.59-.27,1.67-.34,2.56-2.11l.52-1,.61,1.11c1,1.78,1.05,1.82,2.52,2.06a11.23,11.23,0,0,1,1.32.25,6.93,6.93,0,0,1-.91,1,5.25,5.25,0,0,0-1,1.33,5.14,5.14,0,0,0,.11,1.43,5.52,5.52,0,0,1,.14,1.2c-.13.2-.43.11-1.57-.46l-1.13-.56-1.11.51c-1.42.66-1.65.74-1.72.67Z"/><path class="cls-7" d="M355.89,96.59A1.42,1.42,0,0,1,356,96a5,5,0,0,0,.21-2.21,4.6,4.6,0,0,0-1.08-1.43c-.63-.64-.89-1-.78-1s.72-.12,1.38-.2a5.49,5.49,0,0,0,1.43-.3,4.8,4.8,0,0,0,.76-1.22,3.1,3.1,0,0,1,.74-1.12c.15,0,.38.27.79,1a7.42,7.42,0,0,0,.77,1.22,4.73,4.73,0,0,0,1.27.34,12.21,12.21,0,0,1,1.42.31c.31.12.31.12.08.4s-.57.64-1,1.07c-.83.87-.82.82-.64,2.66.08.86.07,1-.08,1a7.43,7.43,0,0,1-1.31-.62l-1.13-.62-1.13.57c-1.39.7-1.7.82-1.78.69Z"/><path class="cls-7" d="M345.5,90.72c0-.29.11-1,.16-1.55l.07-1-.91-1c-.5-.55-.86-1-.8-1.1a5.85,5.85,0,0,1,1.31-.31,4.47,4.47,0,0,0,1.43-.42,8.38,8.38,0,0,0,.83-1.38l.59-1.18.49.92c.27.51.6,1.09.74,1.29a2.49,2.49,0,0,0,2,.83c.81,0,1.11.09,1.11.31a5.71,5.71,0,0,1-.9,1.15l-.89,1,.09,1.5c.07,1.18.05,1.5-.07,1.5a8.45,8.45,0,0,1-1.37-.65l-1.2-.65-1.23.65a8.8,8.8,0,0,1-1.38.65c-.12,0-.14-.14-.08-.54Z"/><path class="cls-7" d="M641.87,864q-82.79-82.77-165.55-165.55.76-4.23,1.4-8.68A223.87,223.87,0,0,0,479.91,663L682.82,864Z"/><g id="g4354"><g id="g4339"><g id="g4325"><g id="g4312"><g id="g4300"><g id="g4292"><polygon id="polygon6-7-9-8-1" class="cls-8" points="738.71 550.5 748.15 545.3 737.74 544.08 745.15 551.24 743.57 540.88 738.71 550.5"/><polygon id="polygon6-7-2-5" class="cls-8" points="763.28 568.82 770.69 575.97 769.12 565.61 764.25 575.23 773.7 570.03 763.28 568.82"/><polygon id="polygon6-7-0-4-2" class="cls-8" points="749.75 560.07 744.89 569.69 754.33 564.49 743.92 563.27 751.33 570.43 749.75 560.07"/><polygon id="polygon6-7-9-8" class="cls-7" points="757.51 526.44 752.64 536.06 762.09 530.86 751.68 529.65 759.09 536.8 757.51 526.44"/><polygon id="polygon6-7-2" class="cls-7" points="787.7 555.53 777.29 554.32 784.7 561.47 783.12 551.11 778.26 560.73 787.7 555.53"/><polygon id="polygon6-7-0-4" class="cls-7" points="778.48 542.31 776.9 531.95 772.04 541.57 781.49 536.37 771.07 535.16 778.48 542.31"/></g><polygon id="polygon6-7-2-5-7" class="cls-8" points="734.96 550.58 734.46 547.3 732.92 550.34 735.91 548.7 732.62 548.32 734.96 550.58"/></g></g></g></g></g><path class="cls-7" d="M122.83,190.87A459.49,459.49,0,0,1,105,138.15c-4.24-15.54-7.37-30.22-9.68-43.76a512.36,512.36,0,0,1,50.91,11.46C163.33,110.64,179,116,193,121.43a52.67,52.67,0,0,0-70.21,69.44Z"/><path class="cls-7" d="M740.88,671.89a461.36,461.36,0,0,1,17.88,52.72c4.24,15.54,7.36,30.22,9.68,43.76a512.51,512.51,0,0,1-50.92-11.46c-17.14-4.79-32.78-10.13-46.85-15.58a52.67,52.67,0,0,0,70.21-69.44Z"/><text class="cls-9" transform="translate(94.72 671.8)">Ace combat 7</text><text class="cls-9" transform="translate(535.99 206.19)">original sountrack</text><rect class="cls-7" x="-54.81" y="67.78" width="285.71" height="28.6" transform="translate(-32.25 86.3) rotate(-45)"/></svg>