<svg xmlns="http://www.w3.org/2000/svg" viewBox="0 0 159.32 159.4"><defs><style>.cls-1,.cls-3{fill:#070632;}.cls-2,.cls-4{fill:#f0f0f2;}.cls-2,.cls-3{stroke:#f0f0f2;}.cls-2,.cls-3,.cls-4,.cls-5{stroke-miterlimit:10;}.cls-4,.cls-5{stroke:#060531;}.cls-5{fill:none;stroke-width:2px;}</style></defs><g id="Capa_2" data-name="Capa 2"><g id="Capa_1-2" data-name="Capa 1"><g id="logo-test"><g id="cabeza"><rect class="cls-1" width="159.32" height="159.32"/><path class="cls-2" d="M25.31,55.75V158.9h46V114.38L104,114q-2.46-14-4.93-27.9l21.39-8.86L105.63,41.52l-.07-.19-.66-1.57-.08-.19A39.5,39.5,0,0,0,91.45,23.49a41.56,41.56,0,0,0-20.18-7A55.32,55.32,0,0,0,58,17c-1.28.22-2.48.5-2.48.5q-.77.18-1.5.39c-.61.17-1.2.35-1.8.55s-1.34.47-2,.73-1,.42-1.55.65-1,.45-1.49.7-1.18.6-1.75.92-.88.51-1.32.77-1.14.73-1.7,1.11-1.07.75-1.59,1.15-1,.76-1.45,1.16c-.67.56-1.31,1.14-1.94,1.74-.39.37-.77.76-1.15,1.15s-1,1.08-1.5,1.65-.76.91-1.13,1.37-.66.87-1,1.32-.74,1.06-1.1,1.6c-.22.34-.43.69-.64,1-.35.58-.68,1.17-1,1.77s-.58,1.1-.84,1.67-.59,1.27-.86,1.93-.46,1.17-.68,1.77c-.26.75-.5,1.5-.72,2.27s-.4,1.49-.57,2.25A39.37,39.37,0,0,0,25.31,55.75Z"/></g><path class="cls-1" d="M75.87,97.43A49.36,49.36,0,0,0,95,102.78a48.6,48.6,0,0,0,7.7-.1c-.17-1-.35-2-.53-3a53,53,0,0,1-6.67.41A54.87,54.87,0,0,1,77,96.86Z"/><path class="cls-1" d="M60.48,84l4.66,1q11-22.07,22-44.13c-.9,1.13-1.79,2.27-2.69,3.41Z"/><path class="cls-3" d="M11.78,68.52C19.09,78.48,27,84.2,31.44,82.3c1-.42,3.37-1.88,3.83-4.17s-1.49-3.64-1.4-7.47a10.8,10.8,0,0,1,4.82-8.81c4.25-2.78,6.55-.31,9.22-2.65,2.1-1.84,2.87-5.3,3.81-9.56A14.4,14.4,0,0,1,53,46.07a12.13,12.13,0,0,1,2.34-3.21,11.53,11.53,0,0,1,3.39-2.18,14.53,14.53,0,0,1,6.45-1c6.95.28,13.79-1.53,19.32-3a63.1,63.1,0,0,0,6.84-2.24l35.24-19.91C93.31,10.69,68.27,9.17,58.49,9.3a64.25,64.25,0,0,0-17,2.87,32.4,32.4,0,0,0-8,3.79,29.69,29.69,0,0,0-4.81,3.92,31.54,31.54,0,0,0-3.94,4.92c-8.88,13.61-11.7,29.67-11.7,29.67A85.27,85.27,0,0,0,11.78,68.52Z"/><g id="gafas"><path class="cls-4" d="M92,53.53l.72,7.3h20.89c-1-2.43-2-4.86-3-7.3Z"/><path class="cls-4" d="M26.72,62.13l7.05,4.06,1-1.91a7.31,7.31,0,0,1,1-1.34,7.62,7.62,0,0,1,2-1.57l26.38-.54a19.27,19.27,0,0,1,4.36-7.3H41.49c-.46,0-1.11,0-1.88,0a19.23,19.23,0,0,0-4.33.67,12.84,12.84,0,0,0-5.61,3.36,11.6,11.6,0,0,0-1.07,1.3l-1.13,2Z"/><path class="cls-4" d="M63.6,63.16a23.34,23.34,0,0,1,.47-2.33,18.67,18.67,0,0,1,4.36-7.3H92l.72,7.3,1.56,15.83h0c0,.29.05.56.08.85,0,0,0,0,0,0a.45.45,0,0,1,0,.16,2.42,2.42,0,0,1-.34.82,3.34,3.34,0,0,1-.66.78,6.06,6.06,0,0,1-.6.49,10.16,10.16,0,0,1-1,.61c-.34.17-.7.33-1.09.49a16.15,16.15,0,0,1-1.66.55c-.42.12-.87.23-1.34.33-.66.14-1.37.26-2.1.35s-1.21.14-1.83.17-1.07.06-1.92.06A52.19,52.19,0,0,1,76,82c-.27,0-.63-.08-1.09-.17a14.29,14.29,0,0,1-1.59-.42c-.37-.12-.74-.25-1.1-.4a13.47,13.47,0,0,1-1.48-.72A14.24,14.24,0,0,1,69,79.18a11.9,11.9,0,0,1-1.15-1,14.23,14.23,0,0,1-1.48-1.63c-.24-.32-.47-.64-.69-1A12.74,12.74,0,0,1,65,74.24c-.23-.47-.44-.95-.63-1.45s-.29-.86-.41-1.31a21.12,21.12,0,0,1-.47-3.65A23.93,23.93,0,0,1,63.6,63.16Z"/><path class="cls-1" d="M73.4,64.94a17.9,17.9,0,0,0,10.3-6.47H73.4Z"/><path class="cls-5" d="M113.27,60.4q-1.33-3.43-2.66-6.87"/></g></g></g></g></svg>